# xmcd
#
# Track frame offsets: 
#        150
#        6427
#        29544
#        49243
#        65113
#        90222
#        107839
#        135349
#        160977
#        177607
#        197174
#        229553
#        250693
#
# Disc length: 3572 seconds
#
# Revision: 0
# Processed by: cddbd v1.5.2PL0 Copyright (c) Steve Scherf et al.
# Submitted via: ExactAudioCopy v1.2
#
DISCID=ad0df20d
DTITLE=Thornetta Davis - Honest Woman
DYEAR=2016
DGENRE=Blues
TTITLE0=When My Sister Sings The Blues
TTITLE1=I Gotta Sang The Blues (feat. Kim Wilson)
TTITLE2=That Don't Appease Me
TTITLE3=Set Me Free (feat. The Larry McCray Band)
TTITLE4=Am I Just A Shadow (feat. Luis Resto)
TTITLE5=I Need A Whole Lotta Lovin' (To Satisfy Me) (feat. Luis Resto)
TTITLE6=I'd Rather Be Alone
TTITLE7=I Believe (Everything Gonna Be Alright)
TTITLE8=Sister Friend Indeed
TTITLE9=Get Up And Dance Away Your Blues (feat. The Late Marcus Belgra
TTITLE9=ve on Trumpet)
TTITLE10=Can We Do It Again
TTITLE11=Honest Woman
TTITLE12=Feels Like Religion
EXTD=
EXTT0=
EXTT1=
EXTT2=
EXTT3=
EXTT4=
EXTT5=
EXTT6=
EXTT7=
EXTT8=
EXTT9=
EXTT10=
EXTT11=
EXTT12=
PLAYORDER=
